# xmcd
#
# Track frame offsets:
#        150
#        18963
#        36945
#
# Disc length: 877 seconds
#
# Revision: 0
# Processed by: cddbd v1.5.1PL2 Copyright (c) Steve Scherf et al.
# Submitted via: ExactAudioCopy v0.95b2
#
DISCID=1a036b03
DTITLE=acid android - let's dance
DYEAR=2006
DGENRE=Rock
TTITLE0=let's dance
TTITLE1=it's a fine day
TTITLE2=ring the noise[05.10.25 shibuya-ax]
EXTD=
EXTT0=
EXTT1=
EXTT2=
PLAYORDER=
